<svg width="13" height="8" viewBox="0 0 13 8" fill="none" xmlns="http://www.w3.org/2000/svg">
<path fill-rule="evenodd" clip-rule="evenodd" d="M8.2344 0.234229C8.38442 0.0842524 8.58787 0 8.8 0C9.01213 0 9.21558 0.0842524 9.3656 0.234229L12.5656 3.43423C12.7156 3.58425 12.7998 3.7877 12.7998 3.99983C12.7998 4.21196 12.7156 4.41541 12.5656 4.56543L9.3656 7.76543C9.21472 7.91116 9.01264 7.99179 8.80288 7.98997C8.59312 7.98815 8.39247 7.90401 8.24415 7.75568C8.09582 7.60736 8.01168 7.40671 8.00986 7.19695C8.00804 6.98719 8.08867 6.78511 8.2344 6.63423L10.0688 4.79983H0.8C0.587827 4.79983 0.384344 4.71554 0.234315 4.56551C0.0842854 4.41549 0 4.212 0 3.99983C0 3.78766 0.0842854 3.58417 0.234315 3.43414C0.384344 3.28411 0.587827 3.19983 0.8 3.19983H10.0688L8.2344 1.36543C8.08442 1.21541 8.00017 1.01196 8.00017 0.799829C8.00017 0.587698 8.08442 0.384251 8.2344 0.234229Z" fill="#E44203"/>
</svg>
