<svg width="16" height="16" viewBox="0 0 16 16" fill="none" xmlns="http://www.w3.org/2000/svg">
<path d="M11.7717 11.1047L8.94299 13.9334C8.81929 14.0572 8.67239 14.1554 8.5107 14.2225C8.34901 14.2895 8.17569 14.324 8.00066 14.324C7.82563 14.324 7.65231 14.2895 7.49062 14.2225C7.32893 14.1554 7.18203 14.0572 7.05833 13.9334L4.22899 11.1047C3.48314 10.3588 2.97522 9.40852 2.76945 8.37396C2.56369 7.3394 2.66932 6.26706 3.073 5.29254C3.47667 4.31801 4.16026 3.48508 5.03732 2.89905C5.91437 2.31303 6.94551 2.00024 8.00033 2.00024C9.05515 2.00024 10.0863 2.31303 10.9633 2.89905C11.8404 3.48508 12.524 4.31801 12.9277 5.29254C13.3313 6.26706 13.437 7.3394 13.2312 8.37396C13.0254 9.40852 12.5175 10.3588 11.7717 11.1047Z" stroke="#E44203" stroke-linecap="round" stroke-linejoin="round"/>
<path d="M10 7.33325C10 7.86369 9.78929 8.37239 9.41421 8.74747C9.03914 9.12254 8.53043 9.33325 8 9.33325C7.46957 9.33325 6.96086 9.12254 6.58579 8.74747C6.21071 8.37239 6 7.86369 6 7.33325C6 6.80282 6.21071 6.29411 6.58579 5.91904C6.96086 5.54397 7.46957 5.33325 8 5.33325C8.53043 5.33325 9.03914 5.54397 9.41421 5.91904C9.78929 6.29411 10 6.80282 10 7.33325Z" stroke="#E44203" stroke-linecap="round" stroke-linejoin="round"/>
</svg>
