<svg width="938" height="550" viewBox="0 0 938 550" fill="none" xmlns="http://www.w3.org/2000/svg">
<g opacity="0.6">
<path opacity="0.2" d="M-37.7229 -721.545C207.164 -628.811 713.201 -384.222 778.253 -147.74C792.743 -97.913 791.531 33.099 670.766 158.528C575.558 270.794 284.628 434.426 -117.428 190.818" stroke="black"/>
<path opacity="0.2" d="M-138.979 -710.882C105.908 -618.148 611.945 -373.559 676.996 -137.078C691.487 -87.2503 690.275 43.7617 569.51 169.19C474.302 281.457 183.372 445.088 -218.684 201.48" stroke="black"/>
<path opacity="0.2" d="M-240.235 -700.219C4.65227 -607.485 510.689 -362.897 575.741 -126.415C590.231 -76.5875 589.02 54.4245 468.254 179.853C373.046 292.12 82.1166 455.751 -319.94 212.143" stroke="black"/>
<path opacity="0.2" d="M-341.491 -689.557C-96.6039 -596.823 409.433 -352.234 474.485 -115.752C488.975 -65.9249 487.763 65.0871 366.998 190.516C271.79 302.782 -19.1395 466.414 -421.196 222.806" stroke="black"/>
<path opacity="0.2" d="M-442.746 -678.894C-197.86 -586.16 308.177 -341.571 373.229 -105.09C387.719 -55.2621 386.508 75.7499 265.742 201.179C170.534 313.445 -120.395 477.077 -522.451 233.469" stroke="black"/>
</g>
</svg>
