<svg width="11" height="10" viewBox="0 0 11 10" fill="none" xmlns="http://www.w3.org/2000/svg">
<path d="M4.38595 10C4.26169 10 4.16751 9.88788 4.18895 9.76549L4.79718 6.29352C4.82803 6.11746 4.63003 5.99244 4.48433 6.09598L1.31149 8.35074C1.21867 8.41671 1.08957 8.39197 1.02772 8.29636L0.0329575 6.75881C-0.0374958 6.64991 0.0127375 6.50379 0.135258 6.46124L3.75642 5.20351C3.93496 5.1415 3.93581 4.88931 3.75769 4.8261L0.133035 3.53979C0.0113259 3.4966 -0.038149 3.3511 0.0320036 3.24266L1.02772 1.70364C1.08957 1.60803 1.21867 1.58329 1.31149 1.64926L4.48433 3.90402C4.63003 4.00756 4.82803 3.88254 4.79718 3.70648L4.18895 0.234511C4.16751 0.112116 4.26169 0 4.38595 0H6.40312C6.52737 0 6.62156 0.112117 6.60012 0.234512L5.99188 3.70648C5.96103 3.88254 6.15903 4.00756 6.30473 3.90401L9.47757 1.64926C9.5704 1.58329 9.69949 1.60803 9.76135 1.70364L10.7567 3.24209C10.827 3.35071 10.7772 3.49645 10.6552 3.53939L6.99968 4.82592C6.82091 4.88884 6.82175 5.14195 7.00094 5.20368L10.653 6.46164C10.7758 6.50395 10.8263 6.6503 10.7557 6.75937L9.76135 8.29636C9.69949 8.39197 9.5704 8.41671 9.47757 8.35074L6.30473 6.09598C6.15903 5.99244 5.96103 6.11746 5.99188 6.29352L6.60012 9.76549C6.62156 9.88788 6.52737 10 6.40312 10H4.38595Z" fill="#E44203"/>
</svg>
