<svg width="94" height="94" viewBox="0 0 94 94" fill="none" xmlns="http://www.w3.org/2000/svg">
<g clip-path="url(#clip0_167_5215)">
<path d="M66.7594 52.0992C66.3668 53.4249 65.7272 54.6854 64.8084 55.8153L55.6768 67.1309C57.1461 68.5749 59.4492 68.9338 61.3152 67.8569C63.4686 66.6169 64.4603 64.096 63.8936 61.779C65.2091 62.2032 66.6906 62.1013 67.9737 61.3548C70.3983 59.9556 71.2523 56.8147 69.8599 54.3631L69.8478 54.3509C71.1471 54.7465 72.5921 54.6323 73.8591 53.9062C76.2634 52.5193 77.1134 49.4069 75.7655 46.9717L66.7594 52.0992Z" fill="#203A72"/>
<path d="M93.7289 29.7903L77.9023 1.11792C77.3235 0.0695782 76.0161 -0.305704 74.9758 0.273536L23.4444 29.1621C22.4123 29.7413 22.0318 31.063 22.6146 32.1072L33.9604 52.6703C34.6161 53.6982 35.7292 54.3019 36.9638 54.3019C37.5993 54.3019 38.8095 54.1347 39.7527 52.964L43.2175 48.6686C41.6996 48.3504 40.0927 48.4483 38.5707 49.0194C38.1579 49.1663 37.7531 49.3498 37.3564 49.5742C37.0771 49.7292 36.81 49.9046 36.555 50.0963L30.5805 39.2662C30.8679 39.1397 31.1594 39.0051 31.4387 38.8501C31.8353 38.6257 32.2077 38.3769 32.5477 38.1036C35.6159 35.6969 36.6926 31.4423 35.0776 27.8241C34.9804 27.5998 34.8671 27.3754 34.7497 27.1552C34.7092 27.0777 34.6606 27.0124 34.6161 26.943L67.2204 8.66435C67.2569 8.74186 67.2852 8.81936 67.3257 8.88871C67.4431 9.10898 67.5766 9.32518 67.7183 9.52913C69.9203 12.8169 74.0773 14.1427 77.7242 12.7843C78.1371 12.6374 78.5419 12.4457 78.9345 12.2295C79.2219 12.0664 79.485 11.891 79.74 11.7074L85.7225 22.5376C85.4311 22.664 85.1437 22.7986 84.8644 22.9536C84.4677 23.178 84.0953 23.4268 83.7553 23.7001C80.6588 26.1313 79.5902 30.4389 81.266 34.0816C81.351 34.2774 81.4481 34.4609 81.5534 34.6526C81.61 34.7587 81.6789 34.8484 81.7436 34.9545L65.8563 43.8634C66.4433 44.9199 66.8359 46.062 67.0383 47.2368L92.9072 32.7395C93.9475 32.1603 94.3199 30.8386 93.7451 29.7944L93.7289 29.7903Z" fill="#14A0DE"/>
<path d="M51.5682 39.641C53.0861 38.8252 54.8023 38.3806 56.5833 38.3806C58.9593 38.3806 61.2868 39.1964 63.1447 40.6771C63.2499 40.6282 63.3552 40.5711 63.4523 40.514C68.6941 37.577 70.5803 30.9076 67.6579 25.6291C64.7435 20.3425 58.1255 18.4417 52.8878 21.3827C47.646 24.3197 45.7598 30.9891 48.6741 36.2676C49.4229 37.6178 50.4146 38.7518 51.5682 39.641Z" fill="#14A0DE"/>
<path d="M60.6265 44.0509C57.8862 41.8074 53.8223 42.2275 51.5961 44.9891L43.0028 55.6357C39.5218 59.9474 32.8228 59.3518 30.1473 54.4935L19.6758 35.4888C12.9769 39.6169 6.8446 64.8505 6.8446 64.8505L1.30328 69.5089C0.052537 70.5572 -0.344139 72.3235 0.327781 73.8124L10.1597 92.189C10.9975 93.7513 12.8716 94.4244 14.4948 93.7309C17.567 92.4174 22.659 90.4757 27.2936 89.7905C30.8435 89.2642 35.2191 85.7888 35.9719 84.8547C38.2305 82.0564 61.5575 53.1556 61.5575 53.1556C63.7837 50.394 63.3668 46.2985 60.6265 44.055V44.0509Z" fill="#203A72"/>
</g>
<defs>
<clipPath id="clip0_167_5215">
<rect width="94" height="94" fill="white"/>
</clipPath>
</defs>
</svg>
