<svg width="94" height="83" viewBox="0 0 94 83" fill="none" xmlns="http://www.w3.org/2000/svg">
<g clip-path="url(#clip0_167_5226)">
<path d="M32.3057 30.5148H32.5046C36.6746 30.5148 40.1186 33.873 40.228 38.1H45.525C47.0697 38.1 48.3061 36.8537 48.3061 35.3199V18.2147C48.3061 16.6809 47.0697 15.4111 45.525 15.4111H28.5567C27.0352 15.4111 25.7988 16.6776 25.7988 18.2147V29.2484C25.8419 29.3152 25.8651 29.3586 25.9082 29.4054C26.9689 30.0737 30.2771 30.585 32.309 30.5181L32.3057 30.5148Z" fill="#203A72"/>
<path d="M13.0307 17.8036C17.9077 17.8036 21.8612 13.8181 21.8612 8.90181C21.8612 3.98548 17.9077 0 13.0307 0C8.15376 0 4.2002 3.98548 4.2002 8.90181C4.2002 13.8181 8.15376 17.8036 13.0307 17.8036Z" fill="#203A72"/>
<path d="M32.6003 42.3104C34.7914 42.2536 36.525 40.4125 36.4687 38.2037C36.4123 35.9916 34.5229 34.2607 32.3948 34.3042C29.3651 34.3743 24.2902 33.559 23.0406 31.8648C21.5589 29.8599 20.4882 27.3906 19.8518 25.6697C18.5988 22.2914 15.473 20.0058 11.893 19.8454C9.47655 19.7418 7.11312 20.6173 5.33641 22.3248C3.58622 24.0089 2.57853 26.3747 2.5719 28.814L2.17744 48.4989C2.1675 48.7796 2.18076 49.0603 2.22385 49.3377L4.25249 62.9443L0.172014 77.3296C-0.497568 79.692 0.85817 82.1547 3.20171 82.8297C3.60611 82.9467 4.01382 83.0035 4.41822 83.0035C6.33747 83.0035 8.10424 81.7303 8.6578 79.7756L13.0001 64.4647C13.1725 63.8532 13.2156 63.2083 13.1195 62.5801L11.4057 51.0819L17.6077 63.4489L18.854 78.9134C19.0529 81.3628 21.1909 83.1772 23.6107 82.9868C26.0404 82.7863 27.8503 80.641 27.6514 78.1917L26.3321 61.8583C26.2857 61.2836 26.1299 60.7256 25.8714 60.211L19.5468 47.6001L19.4838 39.2529C24.2206 42.3338 31.0258 42.3505 32.597 42.3104H32.6003Z" fill="#203A72"/>
<path d="M80.9663 17.8036C85.8432 17.8036 89.7968 13.8181 89.7968 8.90181C89.7968 3.98548 85.8432 0 80.9663 0C76.0893 0 72.1357 3.98548 72.1357 8.90181C72.1357 13.8181 76.0893 17.8036 80.9663 17.8036Z" fill="#203A72"/>
<path d="M93.8273 77.3295L89.7468 62.9476L91.7754 49.3409C91.8185 49.0635 91.8318 48.7829 91.8218 48.5022L91.4274 28.8173C91.4208 26.378 90.4131 24.0122 88.6629 22.328C86.9127 20.6439 84.5128 19.745 82.1063 19.8486C78.5263 20.009 75.4005 22.2946 74.1475 25.6729C73.5111 27.3938 72.4371 29.8665 70.9587 31.8681C69.7024 33.5689 64.7436 34.3742 61.6045 34.3074C59.3736 34.2305 57.587 35.9949 57.5306 38.2069C57.4743 40.4157 59.2046 42.2569 61.399 42.3137C62.9702 42.3571 69.7787 42.3371 74.5122 39.2562L74.4492 47.6033L68.1246 60.2142C67.8694 60.7288 67.7136 61.2868 67.6672 61.8582L66.3479 78.1916C66.149 80.6409 67.9589 82.7862 70.3886 82.9866C72.8183 83.1771 74.9497 81.3627 75.1453 78.9133L76.3949 63.4488L82.5969 51.0785L80.8831 62.5766C80.787 63.2049 80.8301 63.8498 81.0025 64.4613L85.3448 79.7721C85.8984 81.7269 87.6651 83 89.5844 83C89.9855 83 90.3932 82.9432 90.8009 82.8263C93.1444 82.1513 94.5002 79.6886 93.8306 77.3261L93.8273 77.3295Z" fill="#203A72"/>
<path d="M54.352 46.7578C53.4902 45.889 52.0914 45.889 51.2328 46.7578C50.371 47.6266 50.371 49.0334 51.2328 49.9022L54.0437 52.7358H34.5563C33.3364 52.7358 32.3486 53.7349 32.3486 54.9646C32.3486 56.1943 33.3364 57.19 34.5563 57.19H54.0471L51.2361 60.0236C50.3743 60.8924 50.3743 62.2992 51.2361 63.168C51.6671 63.6024 52.2306 63.8196 52.7974 63.8196C53.3642 63.8196 53.9277 63.6024 54.3587 63.168L60.9351 56.5351C61.797 55.6663 61.797 54.2595 60.9351 53.3907L54.3553 46.7611L54.352 46.7578Z" fill="#14A0DE"/>
</g>
<defs>
<clipPath id="clip0_167_5226">
<rect width="94" height="83" fill="white"/>
</clipPath>
</defs>
</svg>
