<svg width="104" height="100" viewBox="0 0 104 100" fill="none" xmlns="http://www.w3.org/2000/svg">
<g clip-path="url(#clip0_167_5202)">
<path d="M52.1692 48.2456C37.7514 48.2456 26.0234 59.8521 26.0234 74.1205C26.0234 88.3889 37.7514 99.9954 52.1692 99.9954C66.587 99.9954 78.315 88.3889 78.315 74.1205C78.315 59.8521 66.587 48.2456 52.1692 48.2456ZM52.1692 95.7977C40.0885 95.7977 30.2651 86.076 30.2651 74.1205C30.2651 62.165 40.0933 52.4433 52.1692 52.4433C64.2452 52.4433 74.0734 62.1697 74.0734 74.1205C74.0734 86.0714 64.2452 95.7977 52.1692 95.7977Z" fill="#079B11"/>
<path d="M66.8223 63.7798C66.4272 63.5285 65.9429 63.5285 65.5479 63.7798C63.6481 65.0223 61.4755 65.5389 59.5616 65.9717C56.7778 66.6093 54.3748 67.1677 53.5895 69.6901C53.4155 70.2206 53.3873 70.793 53.4813 71.384C53.5283 71.6307 53.8105 71.7749 54.0315 71.6493C55.4752 70.9187 57.6477 70.1229 60.3187 70.1229C59.0632 70.6673 57.2527 71.5981 55.4799 72.9989C54.3184 73.8691 53.2791 74.8325 52.3668 75.8935C51.4075 74.758 50.42 73.9017 49.5077 73.2641C47.5609 71.7098 45.5153 70.6999 44.1469 70.1368C46.8038 70.0903 49.0046 70.8349 50.4482 71.5376C50.6833 71.6446 50.9655 71.505 50.9984 71.2398C51.0925 70.6627 51.0454 70.0903 50.8573 69.5598C50.025 67.056 47.6032 66.5581 44.8052 65.9671C42.8866 65.5622 40.7047 65.1108 38.772 63.8961C38.377 63.6634 37.8926 63.6634 37.4976 63.9287C37.1214 64.18 36.9333 64.6268 37.0085 65.0782C37.6528 68.6383 39.6184 75.0326 42.9196 76.2937C44.603 76.9174 46.5028 76.573 48.1393 75.4095C48.9716 76.0006 49.8839 76.8243 50.7633 77.9598C50.1661 78.8766 49.63 79.8399 49.1927 80.8684C49.0375 81.2128 48.5813 82.2366 48.2663 83.186C44.509 83.6513 41.1138 84.7403 38.3676 86.2947C41.7439 90.0735 46.6815 92.4516 52.1834 92.4516C57.6853 92.4516 62.6182 90.0735 66.0134 86.2947C62.6041 84.368 58.1885 83.1394 53.3167 82.9672C52.8747 81.3477 52.8277 78.6299 56.4298 75.47C58.0944 76.6195 60.0131 76.9173 61.6777 76.2472C64.946 74.9255 66.7846 68.4847 67.3348 64.9106C67.4148 64.4592 67.2078 64.0218 66.8317 63.7751L66.8223 63.7798Z" fill="#079B11"/>
<path d="M48.4118 43.6058V9.23779L39.0492 27.7691L7.91406 33.563V59.0935L21.1703 62.1557C26.3807 52.0384 36.5145 44.8298 48.4118 43.6105V43.6058Z" fill="#203A72"/>
<path d="M55.5693 9.23781V43.6058C67.4807 44.8251 77.6146 52.0338 82.8249 62.1511L96.0812 59.0889V33.5584L64.932 27.7644L55.5693 9.23315V9.23781Z" fill="#203A72"/>
<path d="M45.078 0L8.67607 10.8805L0 27.8388L34.2434 21.4631L45.078 0Z" fill="#203A72"/>
<path d="M104 27.8388L95.3242 10.8805L58.9082 0L69.7568 21.4631L104 27.8388Z" fill="#203A72"/>
</g>
<defs>
<clipPath id="clip0_167_5202">
<rect width="104" height="100" fill="white"/>
</clipPath>
</defs>
</svg>
