<svg width="82" height="106" viewBox="0 0 82 106" fill="none" xmlns="http://www.w3.org/2000/svg">
<g clip-path="url(#clip0_167_5238)">
<path d="M31.8781 29.9976H69.428C70.5042 29.9976 71.3784 29.1347 71.3784 28.0724V24.1952C71.3784 23.1329 70.5042 22.27 69.428 22.27H64.3968C64.692 21.549 64.8591 20.7629 64.8591 19.9383C64.8591 16.5136 62.0385 13.7256 58.5729 13.7256C54.4003 13.7256 52.2673 16.1723 50.6511 18.853C49.0349 16.1723 46.9019 13.7256 42.7293 13.7256C39.2637 13.7256 36.4431 16.5098 36.4431 19.9383C36.4431 20.7629 36.6102 21.549 36.9054 22.27H31.8742C30.798 22.27 29.9238 23.1329 29.9238 24.1952V28.0724C29.9238 29.1347 30.798 29.9976 31.8742 29.9976H31.8781ZM58.5729 17.8367C59.7424 17.8367 60.6981 18.7801 60.6981 19.9383C60.6981 21.0965 59.7462 22.0399 58.5729 22.0399H53.6077C55.1812 19.2058 56.1952 17.8367 58.5729 17.8367ZM42.7332 17.8367C45.1109 17.8367 46.121 19.202 47.6984 22.0399H42.7332C41.5637 22.0399 40.6119 21.0965 40.6119 19.9383C40.6119 18.7801 41.5637 17.8367 42.7332 17.8367Z" fill="#14A0DE"/>
<path d="M48.6459 42.4919V33.959H32.5264V41.7019L48.6459 42.4919Z" fill="#14A0DE"/>
<path d="M68.7709 43.466V33.959H52.6631V42.6798L68.7709 43.466Z" fill="#14A0DE"/>
<path d="M50.6543 8.28365C51.6412 8.28365 52.4454 7.49363 52.4454 6.5157V1.76795C52.4454 0.790015 51.6451 0 50.6543 0C49.6636 0 48.8633 0.790015 48.8633 1.76795V6.5157C48.8633 7.49363 49.6636 8.28365 50.6543 8.28365Z" fill="#14A0DE"/>
<path d="M56.8238 10.0284C57.1191 10.2086 57.4455 10.2968 57.7718 10.2968C58.3701 10.2968 58.9529 10.0015 59.2948 9.46462L61.8435 5.43785C62.3679 4.60948 62.1115 3.52034 61.2762 3.00261C60.4331 2.48488 59.3298 2.73799 58.8053 3.56636L56.2566 7.59313C55.7321 8.42149 55.9885 9.51064 56.8277 10.0284H56.8238Z" fill="#14A0DE"/>
<path d="M42.0143 9.46878C42.3523 10.0057 42.9389 10.301 43.5373 10.301C43.8597 10.301 44.19 10.2128 44.4852 10.0325C45.3244 9.5148 45.577 8.42182 45.0563 7.59729L42.5077 3.57052C41.9832 2.74215 40.8798 2.49287 40.0406 3.00677C39.2014 3.52449 38.945 4.61748 39.4695 5.44201L42.0182 9.46878H42.0143Z" fill="#14A0DE"/>
<path d="M81.3939 48.9731C80.8927 48.3519 80.1507 47.976 79.3503 47.9377L20.9177 45.0729L19.3092 34.5956C19.1033 33.2495 17.93 32.2524 16.5507 32.2524H2.78954C1.24713 32.2524 0 33.4835 0 35.006C0 36.5285 1.24713 37.7595 2.78954 37.7595H14.1458L21.5276 85.843C21.8656 88.0597 22.9185 89.981 24.3988 91.469C22.8136 93.0107 21.8229 95.1468 21.8229 97.513C21.8229 102.192 25.6809 106 30.4207 106C35.1606 106 39.0186 102.192 39.0186 97.513C39.0186 96.4622 38.7971 95.4651 38.4436 94.5332H58.5376C58.1801 95.4651 57.9626 96.4622 57.9626 97.513C57.9626 102.192 61.8205 106 66.5604 106C71.3003 106 75.1621 102.192 75.1621 97.513C75.1621 92.8343 71.3042 89.0261 66.5604 89.0261H31.7533C29.3756 89.0261 27.3903 87.3425 27.0368 85.0223L26.3685 80.6658H62.2673C70.5854 80.6658 77.6797 74.7982 79.1405 66.714L81.9456 51.1706C82.0855 50.3921 81.8796 49.5906 81.3823 48.9731H81.3939ZM30.4246 100.493C28.7618 100.493 27.4059 99.1544 27.4059 97.513C27.4059 95.8716 28.7618 94.5332 30.4246 94.5332C32.0875 94.5332 33.4434 95.8716 33.4434 97.513C33.4434 99.1544 32.0875 100.493 30.4246 100.493ZM69.5908 97.5092C69.5908 99.1506 68.2349 100.489 66.5682 100.489C64.9015 100.489 63.5494 99.1506 63.5494 97.5092C63.5494 95.8678 64.9053 94.5294 66.5682 94.5294C68.231 94.5294 69.5908 95.8678 69.5908 97.5092Z" fill="#203A72"/>
</g>
<defs>
<clipPath id="clip0_167_5238">
<rect width="82" height="106" fill="white"/>
</clipPath>
</defs>
</svg>
