<svg width="98" height="94" viewBox="0 0 98 94" fill="none" xmlns="http://www.w3.org/2000/svg">
<g clip-path="url(#clip0_167_5188)">
<path d="M29.2023 39.2432C27.6418 42.1764 26.5219 45.3773 25.9397 48.7527L23.3563 48.777C19.7258 48.8014 16.8027 51.7589 16.8027 55.3777V66.4289C16.8027 68.214 17.486 69.8773 18.7514 71.1228C19.9926 72.3683 21.6259 73.0296 23.3805 73.0296H23.4291L29.3236 73.0053C31.0055 73.0053 32.3922 71.6137 32.3922 69.926V54.1606C32.4164 50.0306 33.415 46.1197 35.2182 42.6713C34.3894 42.4522 33.5848 42.083 32.8571 41.6205L29.2023 39.2513V39.2432Z" fill="#203A72"/>
<path d="M91.4468 48.7772L88.8149 48.7528C86.2072 33.6934 73.1244 22.1797 57.3651 22.1797C54.1753 22.1797 51.0784 22.6665 48.1554 23.5469C47.3266 25.5997 46.134 27.5552 44.5977 29.3402L45.4265 31.9326C45.4507 32.0057 45.475 32.103 45.4992 32.1761C49.0327 30.2449 53.0756 29.1455 57.3611 29.1455C71.1515 29.1455 82.3543 40.3914 82.3543 54.2257V75.7398C82.3543 81.3871 77.7737 85.9837 72.146 85.9837H66.4455C66.0048 84.2229 64.4483 82.8801 62.5482 82.8801H52.1943C49.9303 82.8801 48.0786 84.7138 48.0786 87.0101V89.8703C48.0786 92.1422 49.9303 94.0002 52.1943 94.0002H62.5482C64.4483 94.0002 66.0089 92.6574 66.4455 90.8723H72.146C80.4542 90.8723 87.226 84.0769 87.226 75.7398V73.0014L91.366 73.0257H91.4145C93.1691 73.0257 94.7984 72.3644 96.0436 71.1189C97.309 69.8734 97.9923 68.2101 97.9923 66.425V55.3738C97.9923 51.755 95.045 48.7975 91.4387 48.7731L91.4468 48.7772Z" fill="#203A72"/>
<path d="M37.3847 27.5265C41.0193 24.6015 43.2631 20.6743 43.2631 16.3455C43.2631 7.31877 33.5804 0 21.6336 0C9.6868 0 0 7.31877 0 16.3496C0 25.3804 9.6868 32.6951 21.6336 32.6951C24.2736 32.6951 26.7883 32.3219 29.1291 31.6687L36.281 36.2571C37.9224 37.3079 39.9762 35.7297 39.386 33.8676L37.3888 27.5347L37.3847 27.5265ZM11.0331 19.7656C9.15314 19.7656 7.62896 18.2361 7.62896 16.3496C7.62896 14.4631 9.15314 12.9336 11.0331 12.9336C12.913 12.9336 14.4372 14.4631 14.4372 16.3496C14.4372 18.2361 12.913 19.7656 11.0331 19.7656ZM21.6336 19.7656C19.7536 19.7656 18.2295 18.2361 18.2295 16.3496C18.2295 14.4631 19.7536 12.9336 21.6336 12.9336C23.5135 12.9336 25.0377 14.4631 25.0377 16.3496C25.0377 18.2361 23.5135 19.7656 21.6336 19.7656ZM32.23 19.7656C30.3501 19.7656 28.8259 18.2361 28.8259 16.3496C28.8259 14.4631 30.3501 12.9336 32.23 12.9336C34.11 12.9336 35.6342 14.4631 35.6342 16.3496C35.6342 18.2361 34.11 19.7656 32.23 19.7656Z" fill="#14A0DE"/>
<path d="M51.9922 48.8784C51.9922 46.3063 49.9141 44.2251 47.355 44.2251C44.7958 44.2251 42.7178 46.3063 42.7178 48.8784C42.7178 51.4506 44.7958 53.5318 47.355 53.5318C49.9141 53.5318 51.9922 51.4465 51.9922 48.8784Z" fill="#203A72"/>
<path d="M72.085 48.8784C72.085 46.3063 70.0069 44.2251 67.4478 44.2251C64.8886 44.2251 62.8105 46.3063 62.8105 48.8784C62.8105 51.4506 64.8886 53.5318 67.4478 53.5318C70.0069 53.5318 72.085 51.4465 72.085 48.8784Z" fill="#203A72"/>
<path d="M57.3973 73.3826C63.8376 73.3826 69.1743 68.6279 70.1001 62.4207C70.2497 61.4146 69.4896 60.4937 68.4748 60.4937H46.3238C45.309 60.4937 44.5489 61.4146 44.6985 62.4207C45.6243 68.6238 50.9569 73.3826 57.3973 73.3826Z" fill="#203A72"/>
</g>
<defs>
<clipPath id="clip0_167_5188">
<rect width="98" height="94" fill="white"/>
</clipPath>
</defs>
</svg>
