<svg width="33" height="27" viewBox="0 0 33 27" fill="none" xmlns="http://www.w3.org/2000/svg">
<path d="M32.175 18.45H31.35V12.8761C31.35 12.2213 31.087 11.5922 30.623 11.1282L25.4719 5.97708C25.0078 5.51302 24.3787 5.25005 23.7239 5.25005H21.45V2.77505C21.45 1.40864 20.3414 0.300049 18.975 0.300049H5.775C4.40859 0.300049 3.3 1.40864 3.3 2.77505V5.25005H0.4125C0.185625 5.25005 0 5.43567 0 5.66255V6.48755C0 6.71442 0.185625 6.90005 0.4125 6.90005H14.4375C14.6644 6.90005 14.85 7.08567 14.85 7.31255V8.13755C14.85 8.36442 14.6644 8.55005 14.4375 8.55005H2.0625C1.83562 8.55005 1.65 8.73567 1.65 8.96255V9.78755C1.65 10.0144 1.83562 10.2 2.0625 10.2H12.7875C13.0144 10.2 13.2 10.3857 13.2 10.6125V11.4375C13.2 11.6644 13.0144 11.85 12.7875 11.85H0.4125C0.185625 11.85 0 12.0357 0 12.2625V13.0875C0 13.3144 0.185625 13.5 0.4125 13.5H11.1375C11.3644 13.5 11.55 13.6857 11.55 13.9125V14.7375C11.55 14.9644 11.3644 15.15 11.1375 15.15H3.3V21.75C3.3 24.4829 5.51719 26.7 8.25 26.7C10.9828 26.7 13.2 24.4829 13.2 21.75H19.8C19.8 24.4829 22.0172 26.7 24.75 26.7C27.4828 26.7 29.7 24.4829 29.7 21.75H32.175C32.6287 21.75 33 21.3788 33 20.925V19.275C33 18.8213 32.6287 18.45 32.175 18.45ZM8.25 24.225C6.88359 24.225 5.775 23.1165 5.775 21.75C5.775 20.3836 6.88359 19.275 8.25 19.275C9.61641 19.275 10.725 20.3836 10.725 21.75C10.725 23.1165 9.61641 24.225 8.25 24.225ZM24.75 24.225C23.3836 24.225 22.275 23.1165 22.275 21.75C22.275 20.3836 23.3836 19.275 24.75 19.275C26.1164 19.275 27.225 20.3836 27.225 21.75C27.225 23.1165 26.1164 24.225 24.75 24.225ZM28.875 13.5H21.45V7.72505H23.7239L28.875 12.8761V13.5Z" fill="#E44203"/>
</svg>
