<svg width="40" height="25" viewBox="0 0 40 25" fill="none" xmlns="http://www.w3.org/2000/svg">
<path d="M6.5 0.745117C6.26689 0.745015 6.03696 0.799241 5.82846 0.903492C5.61995 1.00774 5.43861 1.15915 5.29883 1.3457L0.798828 7.3457C0.604643 7.60534 0.4998 7.9209 0.5 8.24512V20.2451C0.50004 20.6429 0.658089 21.0244 0.939385 21.3057C1.22068 21.587 1.60219 21.7451 2 21.7451H5.12891C5.52673 21.7451 5.90826 21.5871 6.18957 21.3058C6.47087 21.0245 6.62891 20.6429 6.62891 20.2451C6.62891 19.8473 6.47087 19.4658 6.18957 19.1845C5.90826 18.9032 5.52673 18.7451 5.12891 18.7451H3.5V8.74609L7.25 3.74512H26C26.3978 3.74512 26.7794 3.58708 27.0607 3.30578C27.342 3.02447 27.5 2.64294 27.5 2.24512C27.5 1.84729 27.342 1.46576 27.0607 1.18446C26.7794 0.903153 26.3978 0.745117 26 0.745117H6.5ZM24.5 6.74512C24.1022 6.74516 23.7207 6.9032 23.4394 7.1845C23.1581 7.4658 23 7.8473 23 8.24512V18.7451H17.1289C16.7311 18.7451 16.3495 18.9032 16.0682 19.1845C15.7869 19.4658 15.6289 19.8473 15.6289 20.2451C15.6289 20.6429 15.7869 21.0245 16.0682 21.3058C16.3495 21.5871 16.7311 21.7451 17.1289 21.7451H24.5H27.5C27.8978 21.7451 28.2794 21.5871 28.5607 21.3058C28.842 21.0245 29 20.6429 29 20.2451C29 19.8473 28.842 19.4658 28.5607 19.1845C28.2794 18.9032 27.8978 18.7451 27.5 18.7451H26V9.74512H33.3711L36.5 12.874V18.7451H33.5C33.1022 18.7451 32.7206 18.9032 32.4393 19.1845C32.158 19.4658 32 19.8473 32 20.2451C32 20.6429 32.158 21.0245 32.4393 21.3058C32.7206 21.5871 33.1022 21.7451 33.5 21.7451H38C38.3978 21.7451 38.7793 21.587 39.0606 21.3057C39.3419 21.0244 39.5 20.6429 39.5 20.2451V12.2529C39.4999 11.8551 39.3419 11.4736 39.0605 11.1924L35.0527 7.18457C34.7715 6.90327 34.39 6.74519 33.9922 6.74512H24.5Z" fill="#E44203"/>
<path d="M30.5 15.7451C28.0325 15.7451 26 17.7776 26 20.2451C26 22.7126 28.0325 24.7451 30.5 24.7451C32.9675 24.7451 35 22.7126 35 20.2451C35 17.7776 32.9675 15.7451 30.5 15.7451ZM30.5 18.7451C31.3462 18.7451 32 19.3989 32 20.2451C32 21.0913 31.3462 21.7451 30.5 21.7451C29.6538 21.7451 29 21.0913 29 20.2451C29 19.3989 29.6538 18.7451 30.5 18.7451Z" fill="#E44203" fill-opacity="0.55"/>
<path d="M8.12891 15.7451C5.6614 15.7451 3.62891 17.7776 3.62891 20.2451C3.62891 22.7126 5.6614 24.7451 8.12891 24.7451C9.29438 24.7451 10.3259 24.2327 11.1289 23.4941C11.9322 24.2337 12.9625 24.7451 14.1289 24.7451C16.5964 24.7451 18.6289 22.7126 18.6289 20.2451C18.6289 17.7776 16.5964 15.7451 14.1289 15.7451C12.9625 15.7451 11.9322 16.2565 11.1289 16.9961C10.3259 16.2576 9.29438 15.7451 8.12891 15.7451ZM8.12891 18.7451C8.9751 18.7451 9.62891 19.3989 9.62891 20.2451C9.62891 21.0913 8.9751 21.7451 8.12891 21.7451C7.28271 21.7451 6.62891 21.0913 6.62891 20.2451C6.62891 19.3989 7.28271 18.7451 8.12891 18.7451ZM14.1289 18.7451C14.9751 18.7451 15.6289 19.3989 15.6289 20.2451C15.6289 21.0913 14.9751 21.7451 14.1289 21.7451C13.2827 21.7451 12.6289 21.0913 12.6289 20.2451C12.6289 19.3989 13.2827 18.7451 14.1289 18.7451Z" fill="#E44203" fill-opacity="0.55"/>
<path d="M18.5 6.74512C18.1022 6.74512 17.7206 6.90315 17.4393 7.18446C17.158 7.46576 17 7.84729 17 8.24512V14.2451C17 14.6429 17.158 15.0245 17.4393 15.3058C17.7206 15.5871 18.1022 15.7451 18.5 15.7451C18.8978 15.7451 19.2794 15.5871 19.5607 15.3058C19.842 15.0245 20 14.6429 20 14.2451V8.24512C20 7.84729 19.842 7.46576 19.5607 7.18446C19.2794 6.90315 18.8978 6.74512 18.5 6.74512Z" fill="#E44203" fill-opacity="0.55"/>
<path d="M14 6.74512C13.6022 6.74512 13.2206 6.90315 12.9393 7.18446C12.658 7.46576 12.5 7.84729 12.5 8.24512V11.2451C12.5 11.6429 12.658 12.0245 12.9393 12.3058C13.2206 12.5871 13.6022 12.7451 14 12.7451C14.3978 12.7451 14.7794 12.5871 15.0607 12.3058C15.342 12.0245 15.5 11.6429 15.5 11.2451V8.24512C15.5 7.84729 15.342 7.46576 15.0607 7.18446C14.7794 6.90315 14.3978 6.74512 14 6.74512Z" fill="#E44203" fill-opacity="0.55"/>
<path d="M9.5 6.74512C9.10218 6.74512 8.72064 6.90315 8.43934 7.18446C8.15803 7.46576 8 7.84729 8 8.24512V11.2451C8 11.6429 8.15803 12.0245 8.43934 12.3058C8.72064 12.5871 9.10218 12.7451 9.5 12.7451C9.89782 12.7451 10.2794 12.5871 10.5607 12.3058C10.842 12.0245 11 11.6429 11 11.2451V8.24512C11 7.84729 10.842 7.46576 10.5607 7.18446C10.2794 6.90315 9.89782 6.74512 9.5 6.74512Z" fill="#E44203" fill-opacity="0.55"/>
</svg>
