<svg width="27" height="27" viewBox="0 0 27 27" fill="none" xmlns="http://www.w3.org/2000/svg">
<path d="M3.43885 19.5554C4.24548 18.7481 5.18801 18.0892 6.22322 17.6089C4.76336 16.4262 3.83201 14.6215 3.83201 12.5977C3.83201 9.02698 6.80975 6.09758 10.3804 6.15237C13.8964 6.20715 16.7291 9.07209 16.7291 12.5977C16.7291 14.6215 15.7945 16.4262 14.3379 17.6089C15.3733 18.0889 16.3159 18.7478 17.1222 19.5554C18.8818 21.3182 19.8808 23.6449 19.9453 26.1264C19.9462 26.1608 19.9401 26.195 19.9275 26.227C19.915 26.2591 19.8961 26.2882 19.8721 26.3129C19.8481 26.3375 19.8194 26.3571 19.7877 26.3704C19.7559 26.3838 19.7219 26.3907 19.6875 26.3906H17.8828C17.7442 26.3906 17.6282 26.2811 17.625 26.1425C17.5638 24.2734 16.8064 22.5235 15.4755 21.1957C14.7944 20.511 13.9843 19.9682 13.092 19.5987C12.1998 19.2292 11.2431 19.0403 10.2773 19.043C8.31473 19.043 6.46815 19.8068 5.07918 21.1957C3.75145 22.5235 2.99412 24.2734 2.92967 26.1425C2.92645 26.2811 2.81043 26.3906 2.67186 26.3906H0.867168C0.832762 26.3907 0.798702 26.3838 0.766994 26.3704C0.735289 26.3571 0.706575 26.3375 0.68255 26.3129C0.658524 26.2882 0.639669 26.2591 0.6271 26.227C0.614529 26.195 0.608496 26.1608 0.609356 26.1264C0.673809 23.6449 1.67283 21.3182 3.43885 19.5554ZM10.2773 16.7227C11.3795 16.7227 12.4172 16.2941 13.1938 15.5142C13.5836 15.1275 13.8915 14.6662 14.0991 14.158C14.3067 13.6497 14.4099 13.1048 14.4023 12.5558C14.3927 11.4988 13.9705 10.4772 13.2325 9.71985C12.4591 8.92708 11.4246 8.48557 10.3192 8.47268C9.22674 8.46301 8.16648 8.8884 7.3866 9.65217C6.58738 10.4353 6.1491 11.4826 6.1491 12.5977C6.1491 13.6998 6.57771 14.7343 7.3576 15.5142C7.74022 15.8986 8.19527 16.2034 8.69644 16.4108C9.1976 16.6183 9.73493 16.7243 10.2773 16.7227ZM18.3501 13.4485C18.3791 13.1681 18.3952 12.8845 18.3952 12.5977C18.3952 12.0853 18.3469 11.5858 18.2566 11.0991C18.2341 10.9831 18.2953 10.8639 18.4016 10.8156C18.8399 10.619 19.2428 10.3483 19.5908 10.0067C20.0009 9.60901 20.3236 9.13024 20.5384 8.60089C20.7531 8.07154 20.8551 7.50324 20.838 6.93225C20.809 5.89778 20.3932 4.91487 19.6681 4.17366C18.8721 3.35832 17.8022 2.9136 16.6646 2.92649C15.6366 2.93616 14.644 3.33254 13.8931 4.03508C13.6386 4.27356 13.4194 4.53782 13.2357 4.82141C13.1713 4.92131 13.0456 4.96321 12.936 4.92454C12.3688 4.72795 11.7694 4.58938 11.1539 4.52493C10.9734 4.50559 10.8703 4.31223 10.9509 4.1511C11.9982 2.07893 14.1381 0.648071 16.6131 0.609399C20.187 0.554614 23.1647 3.48401 23.1647 7.05149C23.1647 9.07532 22.2334 10.88 20.7735 12.0627C21.7983 12.5364 22.7426 13.1906 23.5611 14.0092C25.3271 15.772 26.3262 18.0988 26.3906 20.5834C26.3915 20.6178 26.3854 20.652 26.3729 20.6841C26.3603 20.7161 26.3414 20.7453 26.3174 20.7699C26.2934 20.7945 26.2647 20.8141 26.233 20.8275C26.2013 20.8408 26.1672 20.8477 26.1328 20.8477H24.3249C24.1863 20.8477 24.0703 20.7381 24.0671 20.5995C24.0058 18.7304 23.2485 16.9805 21.9176 15.6528C20.9701 14.7053 19.8099 14.0479 18.5434 13.7288C18.4178 13.6966 18.334 13.5774 18.3501 13.4485Z" fill="#E44203"/>
</svg>
